<?xml version="1.0" standalone="no"?>
<!DOCTYPE svg PUBLIC "-//W3C//DTD SVG 20010904//EN"
 "http://www.w3.org/TR/2001/REC-SVG-20010904/DTD/svg10.dtd">
<svg version="1.0" xmlns="http://www.w3.org/2000/svg"
 width="1805.000000pt" height="1814.000000pt" viewBox="0 0 1805.000000 1814.000000"
 preserveAspectRatio="xMidYMid meet">

<g transform="translate(0.000000,1814.000000) scale(0.100000,-0.100000)"
fill="#000000" stroke="none">
<path d="M9335 16649 c-182 -37 -290 -161 -288 -330 2 -164 105 -267 353 -354
174 -61 210 -93 210 -181 0 -96 -63 -140 -191 -132 -49 3 -76 9 -96 24 -39 29
-73 82 -73 113 0 45 -8 48 -119 43 l-103 -4 5 -50 c22 -185 193 -317 409 -318
169 0 291 59 353 172 28 49 30 61 30 153 0 90 -3 105 -28 153 -55 104 -137
161 -335 230 -156 55 -202 94 -202 170 0 39 33 86 73 105 51 24 153 23 195 -3
33 -20 71 -87 72 -124 0 -18 6 -19 83 -13 45 4 94 7 108 7 26 0 26 1 18 52
-19 118 -106 227 -216 268 -66 25 -187 33 -258 19z"/>
<path d="M10026 16589 c-5 -55 -47 -1012 -46 -1081 l0 -38 104 0 105 0 5 53
c9 84 50 1097 44 1102 -2 3 -50 8 -105 11 l-101 7 -6 -54z"/>
<path d="M8465 16563 c-181 -24 -331 -46 -333 -47 -3 -3 148 -1149 151 -1153
3 -2 670 87 683 91 12 4 -5 169 -19 182 -4 4 -111 -7 -239 -24 -128 -17 -234
-30 -235 -29 -1 1 -11 69 -22 152 -14 100 -18 151 -11 155 6 4 94 17 195 30
101 13 188 26 194 29 14 9 -9 181 -24 181 -6 0 -99 -11 -205 -25 -106 -14
-194 -25 -195 -23 -1 2 -10 61 -18 133 -11 83 -13 131 -7 135 6 3 110 19 233
35 122 15 225 31 228 34 6 6 -5 116 -16 169 -3 12 -11 22 -18 21 -6 -1 -160
-21 -342 -46z"/>
<path d="M10804 16580 c-113 -16 -225 -95 -288 -203 -66 -112 -106 -295 -106
-487 0 -167 39 -281 129 -373 84 -88 188 -127 341 -127 105 0 169 14 245 52
85 44 84 41 116 295 15 125 27 228 26 229 -1 1 -93 12 -204 26 l-202 24 -5
-31 c-3 -16 -8 -55 -11 -86 l-7 -57 38 -6 c22 -3 65 -8 98 -12 l58 -7 -6 -61
c-17 -154 -23 -163 -119 -173 -122 -13 -218 41 -256 143 -37 98 -22 361 29
496 50 133 153 192 273 156 72 -22 127 -100 127 -180 0 -24 4 -26 88 -37 136
-17 126 -22 119 57 -10 127 -67 234 -155 292 -83 55 -222 84 -328 70z"/>
<path d="M11581 16423 c-17 -81 -241 -1047 -247 -1065 -4 -14 13 -20 98 -40
71 -17 105 -21 109 -14 4 6 44 171 89 366 72 313 90 384 90 356 0 -14 221
-801 229 -816 8 -14 199 -65 209 -55 5 5 261 1102 262 1121 0 10 -197 60 -205
52 -2 -1 -41 -164 -86 -361 -46 -196 -86 -357 -89 -357 -4 0 -58 184 -121 409
l-114 408 -90 22 c-123 29 -122 29 -134 -26z"/>
<path d="M7455 16369 c-27 -5 -117 -26 -200 -47 -135 -33 -150 -39 -147 -57 6
-35 271 -1107 274 -1110 2 -1 83 17 180 41 245 60 321 102 399 217 87 132 106
304 55 502 -46 177 -128 307 -243 387 -86 59 -215 86 -318 67z m160 -208 c46
-21 105 -82 134 -140 36 -70 72 -212 78 -307 7 -114 -12 -179 -68 -235 -36
-36 -72 -51 -200 -85 -12 -3 -31 62 -104 358 -48 200 -90 370 -92 379 -3 11
11 19 59 31 85 21 145 21 193 -1z"/>
<path d="M12506 15663 c-98 -295 -179 -543 -180 -551 -1 -11 91 -46 324 -123
179 -60 327 -109 330 -109 11 0 62 172 53 180 -4 4 -106 40 -225 80 -124 41
-218 77 -218 84 0 12 87 276 93 282 2 2 91 -25 197 -61 106 -36 194 -64 195
-62 13 15 55 171 49 177 -5 4 -93 35 -196 69 l-186 62 40 122 c22 67 44 125
47 129 4 5 108 -26 231 -67 123 -41 225 -73 227 -71 5 5 63 179 60 181 -6 5
-643 215 -652 215 -6 0 -91 -242 -189 -537z"/>
<path d="M6185 15950 c-164 -70 -305 -132 -313 -136 -10 -7 37 -126 213 -539
125 -291 228 -532 230 -534 4 -4 624 258 638 269 5 4 -54 161 -67 177 -1 2
-101 -40 -222 -92 -120 -51 -222 -91 -226 -87 -8 8 -118 263 -118 273 0 4 82
42 183 85 100 42 184 79 186 81 4 3 -56 161 -64 171 -2 2 -83 -31 -182 -73
-98 -42 -183 -79 -189 -82 -10 -4 -114 220 -114 245 0 5 99 51 219 102 l220
94 -16 35 c-8 20 -24 60 -36 88 -12 29 -26 53 -32 52 -5 0 -145 -58 -310 -129z"/>
<path d="M13532 15893 c-33 -63 -453 -1046 -448 -1050 7 -7 178 -83 186 -83 4
0 44 87 90 194 77 181 84 194 104 186 11 -4 47 -19 79 -33 l57 -26 1 -78 c1
-43 4 -149 8 -236 l6 -159 104 -44 c57 -24 106 -43 108 -41 2 2 -1 116 -7 253
-5 137 -10 256 -10 265 0 12 13 18 45 22 132 19 238 131 281 299 35 137 -23
269 -155 352 -29 19 -321 150 -428 193 -6 2 -16 -4 -21 -14z m326 -335 c124
-77 50 -318 -98 -318 -26 0 -165 51 -222 81 -15 8 -10 24 44 146 33 76 64 148
69 160 l8 23 83 -36 c45 -19 97 -44 116 -56z"/>
<path d="M5558 15671 c-54 -31 -98 -62 -98 -69 0 -12 212 -813 226 -852 3 -8
-107 95 -243 230 -136 135 -282 278 -324 318 l-76 73 -99 -57 c-54 -31 -100
-58 -102 -59 -4 -3 861 -801 884 -815 16 -10 33 -4 109 40 50 29 92 54 94 56
5 5 -260 1177 -268 1185 -3 3 -50 -19 -103 -50z"/>
<path d="M4615 15079 c-39 -27 -77 -54 -84 -59 -12 -6 59 -111 320 -475 183
-257 339 -469 346 -472 9 -3 115 67 171 113 5 4 -669 944 -677 944 -4 0 -38
-23 -76 -51z"/>
<path d="M4010 14603 c-173 -151 -315 -280 -315 -285 0 -5 27 -40 59 -79 l59
-69 66 57 c36 32 88 77 115 100 26 24 52 43 57 43 4 0 148 -161 320 -357 171
-197 315 -358 320 -358 13 0 160 127 157 136 -2 4 -142 167 -313 363 -170 196
-311 359 -312 363 -2 5 49 53 112 107 63 55 115 105 115 110 -1 6 -29 41 -63
78 l-62 67 -315 -276z"/>
<path d="M3318 13919 c-35 -40 -62 -75 -61 -78 1 -3 133 -240 292 -525 160
-285 291 -521 291 -523 0 -3 -30 16 -66 41 -36 26 -69 44 -74 41 -5 -3 -68
-91 -140 -195 -72 -105 -133 -190 -136 -190 -3 0 -61 39 -130 86 -80 55 -122
90 -117 97 4 7 56 83 116 170 60 87 106 162 101 166 -5 4 -39 29 -76 54 l-67
47 -117 -170 c-70 -101 -121 -167 -128 -163 -17 10 -200 135 -210 144 -5 4 50
92 121 196 71 103 132 193 136 199 6 10 -131 114 -150 114 -9 -1 -393 -554
-393 -567 0 -15 951 -666 959 -657 22 24 391 564 391 572 0 5 12 19 26 33 14
13 48 49 74 79 l48 56 -37 59 c-21 33 -50 81 -65 107 l-27 47 122 133 c67 73
126 135 131 137 6 2 59 -20 118 -49 l107 -51 51 53 c27 29 62 68 77 85 l27 33
-44 19 c-23 10 -274 120 -556 245 -282 124 -517 226 -522 226 -5 0 -37 -32
-72 -71z m495 -328 c71 -34 127 -65 125 -70 -2 -5 -39 -48 -82 -96 -64 -70
-81 -84 -91 -73 -7 7 -60 93 -118 190 l-106 177 72 -33 c40 -19 130 -61 200
-95z"/>
<path d="M15442 13899 c-62 -50 -109 -95 -106 -101 4 -6 78 -96 167 -202 581
-695 1008 -1410 1335 -2231 255 -642 423 -1315 497 -1985 9 -80 25 -177 36
-216 17 -63 19 -105 19 -425 0 -412 -13 -779 -35 -1010 -101 -1060 -358 -1958
-821 -2879 -380 -756 -841 -1400 -1434 -2004 -293 -298 -561 -535 -855 -756
-165 -124 -764 -526 -945 -635 -382 -228 -793 -403 -1415 -598 -845 -266
-1280 -352 -2030 -397 -236 -15 -751 -14 -940 0 -462 35 -1409 206 -1865 337
-363 104 -657 224 -1105 453 -479 244 -691 365 -990 565 -732 489 -1421 1145
-1955 1860 -115 155 -179 246 -484 692 -53 79 -103 143 -110 143 -6 0 -52 -16
-102 -36 -168 -68 -155 -60 -144 -89 16 -43 288 -485 360 -585 37 -52 109
-142 159 -200 50 -58 144 -181 209 -275 191 -278 348 -461 647 -760 1117
-1117 2480 -1878 3985 -2224 1183 -272 2359 -294 3499 -65 1215 243 2375 760
3351 1490 334 250 597 479 900 784 1061 1067 1815 2384 2174 3799 143 561 217
1052 256 1696 18 297 15 376 -14 500 -31 131 -32 181 -6 255 28 79 25 158 -15
504 -44 370 -64 505 -116 760 -245 1228 -747 2349 -1506 3364 -192 257 -453
562 -480 562 -5 0 -59 -41 -121 -91z"/>
<path d="M11322 13360 c-12 -5 -29 -24 -37 -42 -8 -18 -129 -395 -269 -838
-140 -443 -286 -899 -323 -1015 l-69 -210 -2164 -5 c-2129 -5 -2220 -6 -2220
-34 0 -16 79 -47 155 -60 164 -28 260 -71 332 -149 50 -54 75 -102 100 -188
17 -61 18 -162 18 -2194 0 -1988 -1 -2134 -17 -2192 -24 -87 -52 -137 -103
-188 -63 -64 -149 -102 -324 -146 -86 -21 -163 -42 -171 -45 -27 -11 36 -22
204 -36 219 -18 1825 -18 2041 -1 190 16 248 24 238 33 -4 5 -62 20 -128 35
-150 34 -207 51 -269 82 -104 52 -192 175 -216 302 -11 58 -15 2375 -4 2429
l6 31 302 6 c165 3 335 6 376 7 60 1 94 -5 168 -31 117 -39 167 -68 225 -130
70 -75 102 -150 131 -311 27 -143 32 -158 61 -153 46 9 48 34 46 633 -2 541
-7 627 -35 665 -11 16 -18 1 -56 -116 -24 -74 -51 -152 -60 -174 -29 -67 -104
-156 -205 -244 l-96 -83 -397 16 c-218 9 -412 16 -429 16 l-33 0 0 1058 0
1059 293 6 c393 9 901 8 1182 -3 252 -9 309 -20 430 -83 85 -45 236 -199 298
-304 104 -178 103 -201 -7 -546 -47 -144 -170 -532 -275 -862 -480 -1517
-1523 -4805 -1806 -5695 -172 -542 -316 -1005 -320 -1029 -7 -44 2 -60 32 -61
31 0 108 224 523 1535 243 765 558 1760 702 2212 l261 822 51 -45 c54 -48
1124 -954 1487 -1260 226 -190 315 -286 379 -405 105 -198 145 -493 91 -684
-70 -250 -252 -427 -536 -520 -395 -129 -912 -49 -1284 199 -272 181 -431 417
-547 814 -24 80 -30 92 -49 92 -42 0 -46 -50 -56 -570 -8 -499 -5 -563 29
-608 l18 -23 43 94 c23 52 55 110 72 129 58 71 161 98 264 70 22 -7 83 -37
135 -67 434 -255 725 -309 1355 -250 588 55 952 162 1266 371 305 204 474 423
536 697 20 91 23 323 4 427 -30 172 -108 362 -207 511 -115 170 -246 294 -789
744 -790 655 -1316 1105 -1405 1202 -179 196 -274 418 -287 673 -6 134 5 209
46 295 55 119 138 185 303 240 155 51 267 69 453 69 169 0 260 -11 416 -50
369 -92 600 -234 771 -475 90 -126 143 -248 222 -509 33 -110 38 -117 68 -103
l23 10 -12 264 c-18 398 -56 902 -69 918 -8 9 -71 -44 -92 -76 -43 -65 -69
-73 -237 -73 -196 1 -272 11 -420 60 -144 47 -326 85 -484 101 -143 15 -512 6
-666 -15 -60 -9 -125 -16 -144 -16 -31 0 -33 2 -28 28 4 20 1225 3882 1252
3960 5 14 -29 15 -63 2z"/>
<path d="M2433 12510 c-78 -16 -156 -73 -213 -154 -48 -71 -221 -409 -213
-416 15 -14 1011 -530 1022 -530 10 0 106 179 99 185 -2 2 -82 44 -178 95 -96
50 -179 95 -183 99 -5 5 8 41 28 81 l37 73 146 -7 c81 -3 188 -9 237 -12 l90
-6 50 98 c27 55 51 102 53 105 3 7 -116 15 -375 25 l-163 7 0 31 c0 18 -7 55
-15 84 -31 102 -169 213 -303 241 -59 12 -60 12 -119 1z m142 -239 c22 -10 55
-34 73 -55 49 -56 45 -109 -15 -231 -26 -52 -52 -95 -57 -95 -5 0 -76 35 -157
77 l-149 77 53 100 c62 118 95 146 166 146 25 0 64 -9 86 -19z"/>
<path d="M2033 11590 c-115 -24 -219 -106 -271 -213 -74 -153 -68 -286 19
-417 76 -113 214 -202 419 -268 127 -42 218 -56 306 -49 212 18 348 148 383
367 20 122 -20 242 -109 330 -40 41 -147 108 -154 98 -7 -10 -66 -182 -66
-193 0 -7 14 -18 30 -25 40 -17 86 -71 101 -118 9 -32 8 -49 -5 -93 -23 -79
-48 -113 -101 -139 -67 -33 -157 -24 -317 30 -311 106 -409 215 -334 375 43
93 109 127 207 108 27 -6 52 -7 54 -3 10 16 65 172 65 185 0 7 -10 15 -22 18
-48 12 -165 15 -205 7z"/>
<path d="M1613 10202 c-65 -23 -125 -64 -158 -108 -54 -71 -75 -138 -116 -370
-22 -124 -39 -228 -37 -230 2 -2 249 -46 548 -99 300 -52 557 -97 571 -100 25
-6 26 -5 44 100 10 58 16 107 14 109 -2 1 -93 18 -202 36 -188 32 -198 35
-193 54 42 171 44 336 6 424 -30 68 -111 143 -188 172 -81 32 -219 37 -289 12z
m224 -222 c57 -25 83 -69 83 -139 0 -59 -29 -231 -39 -231 -16 0 -344 60 -348
64 -2 2 6 56 18 121 23 127 44 165 104 191 44 20 133 17 182 -6z"/>
<path d="M1269 9193 c0 -16 -4 -63 -7 -105 l-8 -78 31 -5 c36 -6 1080 -95
1111 -95 20 0 22 7 31 103 5 56 8 104 6 105 -1 4 -1108 102 -1145 102 -13 0
-18 -8 -19 -27z"/>
<path d="M2210 8682 c0 -60 -3 -163 -7 -230 l-6 -121 -484 6 -483 6 0 -105 0
-106 153 -6 c83 -3 344 -7 578 -9 l427 -4 6 51 c3 28 6 180 6 339 l0 287 -95
0 -95 0 0 -108z"/>
<path d="M1772 7895 c-288 -18 -525 -35 -528 -37 -2 -3 -1 -51 2 -106 l7 -102
51 1 c89 1 1105 64 1110 69 2 3 2 51 -1 108 l-6 102 -56 -1 c-31 -1 -291 -16
-579 -34z"/>
<path d="M1830 7468 c-35 -5 -65 -10 -66 -11 0 -1 11 -92 26 -202 15 -110 26
-201 24 -203 -3 -5 -287 -42 -291 -38 -2 2 -17 104 -33 226 -17 123 -32 225
-34 227 -8 8 -186 -21 -186 -31 -1 -12 83 -660 85 -663 2 -4 1149 148 1153
152 3 3 -14 147 -23 191 -4 20 -5 20 -240 -11 -129 -17 -235 -30 -235 -29 0 0
-11 86 -25 190 -14 104 -25 195 -25 202 0 14 -34 14 -130 0z"/>
</g>
</svg>
